<svg width="237" height="96" viewBox="0 0 237 96" fill="none" xmlns="http://www.w3.org/2000/svg">
<mask id="path-1-outside-1_18_6" maskUnits="userSpaceOnUse" x="-0.345215" y="-0.399994" width="237" height="96" fill="black">
<rect fill="white" x="-0.345215" y="-0.399994" width="237" height="96"/>
<path d="M4.63979 92.6L44.9598 3H61.3438L101.792 92.6H84.3838L49.6958 11.832H56.3518L21.7918 92.6H4.63979ZM23.1998 71.864L27.6798 58.808H76.0638L80.5438 71.864H23.1998ZM113.187 92.6V3H129.827V92.6H113.187ZM154.062 92.6V3H190.926C198.862 3 205.646 4.28 211.278 6.84C216.995 9.4 221.39 13.0693 224.462 17.848C227.534 22.6267 229.07 28.3013 229.07 34.872C229.07 41.4427 227.534 47.1173 224.462 51.896C221.39 56.5893 216.995 60.216 211.278 62.776C205.646 65.2507 198.862 66.488 190.926 66.488H163.278L170.702 58.936V92.6H154.062ZM212.686 92.6L190.03 60.088H207.822L230.606 92.6H212.686ZM170.702 60.728L163.278 52.792H190.158C197.496 52.792 203 51.2133 206.67 48.056C210.424 44.8987 212.302 40.504 212.302 34.872C212.302 29.1547 210.424 24.76 206.67 21.688C203 18.616 197.496 17.08 190.158 17.08H163.278L170.702 8.888V60.728Z"/>
</mask>
<path d="M4.63979 92.6L1.90402 91.3689L3.05176e-05 95.6H4.63979V92.6ZM44.9598 3V0H43.02L42.224 1.76891L44.9598 3ZM61.3438 3L64.0781 1.76566L63.281 0H61.3438V3ZM101.792 92.6V95.6H106.438L104.526 91.3657L101.792 92.6ZM84.3838 92.6L81.6273 93.7839L82.4073 95.6H84.3838V92.6ZM49.6958 11.832V8.832H45.1424L46.9393 13.0159L49.6958 11.832ZM56.3518 11.832L59.1099 13.0122L60.8986 8.832H56.3518V11.832ZM21.7918 92.6V95.6H23.7712L24.5499 93.7802L21.7918 92.6ZM23.1998 71.864L20.3622 70.8903L18.9987 74.864H23.1998V71.864ZM27.6798 58.808V55.808H25.5375L24.8422 57.8343L27.6798 58.808ZM76.0638 58.808L78.9014 57.8343L78.2061 55.808H76.0638V58.808ZM80.5438 71.864V74.864H84.7449L83.3814 70.8903L80.5438 71.864ZM4.63979 92.6L7.37555 93.8311L47.6956 4.23109L44.9598 3L42.224 1.76891L1.90402 91.3689L4.63979 92.6ZM44.9598 3V6H61.3438V3V0H44.9598V3ZM61.3438 3L58.6095 4.23434L99.0575 93.8344L101.792 92.6L104.526 91.3657L64.0781 1.76566L61.3438 3ZM101.792 92.6V89.6H84.3838V92.6V95.6H101.792V92.6ZM84.3838 92.6L87.1403 91.4161L52.4523 10.6481L49.6958 11.832L46.9393 13.0159L81.6273 93.7839L84.3838 92.6ZM49.6958 11.832V14.832H56.3518V11.832V8.832H49.6958V11.832ZM56.3518 11.832L53.5937 10.6518L19.0337 91.4198L21.7918 92.6L24.5499 93.7802L59.1099 13.0122L56.3518 11.832ZM21.7918 92.6V89.6H4.63979V92.6V95.6H21.7918V92.6ZM23.1998 71.864L26.0374 72.8377L30.5174 59.7817L27.6798 58.808L24.8422 57.8343L20.3622 70.8903L23.1998 71.864ZM27.6798 58.808V61.808H76.0638V58.808V55.808H27.6798V58.808ZM76.0638 58.808L73.2262 59.7817L77.7062 72.8377L80.5438 71.864L83.3814 70.8903L78.9014 57.8343L76.0638 58.808ZM80.5438 71.864V68.864H23.1998V71.864V74.864H80.5438V71.864ZM113.187 92.6H110.187V95.6H113.187V92.6ZM113.187 3V0H110.187V3H113.187ZM129.827 3H132.827V0H129.827V3ZM129.827 92.6V95.6H132.827V92.6H129.827ZM113.187 92.6H116.187V3H113.187H110.187V92.6H113.187ZM113.187 3V6H129.827V3V0H113.187V3ZM129.827 3H126.827V92.6H129.827H132.827V3H129.827ZM129.827 92.6V89.6H113.187V92.6V95.6H129.827V92.6ZM154.062 92.6H151.062V95.6H154.062V92.6ZM154.062 3V0H151.062V3H154.062ZM211.278 6.84L210.036 9.57111L210.044 9.5746L210.052 9.57806L211.278 6.84ZM224.462 17.848L226.985 16.2257V16.2257L224.462 17.848ZM224.462 51.896L226.972 53.539L226.979 53.5287L226.985 53.5183L224.462 51.896ZM211.278 62.776L212.485 65.5226L212.494 65.5183L212.504 65.5141L211.278 62.776ZM163.278 66.488L161.138 64.3849L156.122 69.488H163.278V66.488ZM170.702 58.936H173.702V51.6049L168.562 56.8329L170.702 58.936ZM170.702 92.6V95.6H173.702V92.6H170.702ZM212.686 92.6L210.224 94.3152L211.12 95.6H212.686V92.6ZM190.03 60.088V57.088H184.283L187.568 61.8032L190.03 60.088ZM207.822 60.088L210.279 58.3663L209.383 57.088H207.822V60.088ZM230.606 92.6V95.6H236.371L233.063 90.8783L230.606 92.6ZM170.702 60.728L168.511 62.7775L173.702 68.3263V60.728H170.702ZM163.278 52.792V49.792H156.363L161.087 54.8415L163.278 52.792ZM206.67 48.056L204.739 45.7599L204.726 45.7709L204.713 45.782L206.67 48.056ZM206.67 21.688L204.744 23.9883L204.757 23.9992L204.77 24.0099L206.67 21.688ZM163.278 17.08L161.055 15.0654L156.51 20.08H163.278V17.08ZM170.702 8.888H173.702V1.11018L168.479 6.87344L170.702 8.888ZM154.062 92.6H157.062V3H154.062H151.062V92.6H154.062ZM154.062 3V6H190.926V3V0H154.062V3ZM190.926 3V6C198.55 6 204.888 7.23093 210.036 9.57111L211.278 6.84L212.519 4.1089C206.404 1.32907 199.173 0 190.926 0V3ZM211.278 6.84L210.052 9.57806C215.294 11.9254 219.213 15.2314 221.938 19.4703L224.462 17.848L226.985 16.2257C223.566 10.9073 218.696 6.87462 212.504 4.10195L211.278 6.84ZM224.462 17.848L221.938 19.4703C224.653 23.693 226.07 28.7845 226.07 34.872H229.07H232.07C232.07 27.8182 230.415 21.5604 226.985 16.2257L224.462 17.848ZM229.07 34.872H226.07C226.07 40.9595 224.653 46.051 221.938 50.2737L224.462 51.896L226.985 53.5183C230.415 48.1837 232.07 41.9258 232.07 34.872H229.07ZM224.462 51.896L221.952 50.253C219.23 54.4111 215.308 57.6843 210.052 60.0379L211.278 62.776L212.504 65.5141C218.682 62.7477 223.55 58.7675 226.972 53.539L224.462 51.896ZM211.278 62.776L210.071 60.0294C204.913 62.296 198.562 63.488 190.926 63.488V66.488V69.488C199.162 69.488 206.379 68.2053 212.485 65.5226L211.278 62.776ZM190.926 66.488V63.488H163.278V66.488V69.488H190.926V66.488ZM163.278 66.488L165.417 68.5911L172.841 61.0391L170.702 58.936L168.562 56.8329L161.138 64.3849L163.278 66.488ZM170.702 58.936H167.702V92.6H170.702H173.702V58.936H170.702ZM170.702 92.6V89.6H154.062V92.6V95.6H170.702V92.6ZM212.686 92.6L215.147 90.8848L192.491 58.3728L190.03 60.088L187.568 61.8032L210.224 94.3152L212.686 92.6ZM190.03 60.088V63.088H207.822V60.088V57.088H190.03V60.088ZM207.822 60.088L205.365 61.8097L228.149 94.3217L230.606 92.6L233.063 90.8783L210.279 58.3663L207.822 60.088ZM230.606 92.6V89.6H212.686V92.6V95.6H230.606V92.6ZM170.702 60.728L172.893 58.6785L165.469 50.7425L163.278 52.792L161.087 54.8415L168.511 62.7775L170.702 60.728ZM163.278 52.792V55.792H190.158V52.792V49.792H163.278V52.792ZM190.158 52.792V55.792C197.858 55.792 204.193 54.1453 208.627 50.33L206.67 48.056L204.713 45.782C201.808 48.2814 197.135 49.792 190.158 49.792V52.792ZM206.67 48.056L208.601 50.3521C213.138 46.5368 215.302 41.2433 215.302 34.872H212.302H209.302C209.302 39.7648 207.711 43.2606 204.739 45.7599L206.67 48.056ZM212.302 34.872H215.302C215.302 28.4337 213.148 23.1122 208.569 19.3661L206.67 21.688L204.77 24.0099C207.701 26.4078 209.302 29.8757 209.302 34.872H212.302ZM206.67 21.688L208.596 19.3877C204.164 15.6772 197.842 14.08 190.158 14.08V17.08V20.08C197.151 20.08 201.837 21.5548 204.744 23.9883L206.67 21.688ZM190.158 17.08V14.08H163.278V17.08V20.08H190.158V17.08ZM163.278 17.08L165.501 19.0946L172.925 10.9026L170.702 8.888L168.479 6.87344L161.055 15.0654L163.278 17.08ZM170.702 8.888H167.702V60.728H170.702H173.702V8.888H170.702Z" fill="#FFEA00" mask="url(#path-1-outside-1_18_6)"/>
</svg>
