<?xml version="1.0" encoding="UTF-8"?>
<svg xmlns="http://www.w3.org/2000/svg" width="96" height="96" viewBox="0 0 96 96">
  <rect x="0" y="0" width="96" height="96" rx="18" fill="#fff"/>
  <g fill="#000" fill-rule="evenodd">
    <path d="M 65.167 25.667 L 63.167 26.667 L 62.000 28.667 L 62.000 29.833 L 63.667 31.667 L 63.667 37.500 L 64.500 45.167 L 63.500 49.000 L 61.167 51.667 L 56.167 51.667 L 53.333 49.667 L 52.167 48.167 L 50.167 43.500 L 49.167 38.500 L 49.167 34.333 L 50.000 33.167 L 50.000 32.000 L 49.333 31.000 L 48.167 30.500 L 46.833 30.667 L 44.833 33.000 L 44.833 34.000 L 46.333 36.000 L 46.667 41.000 L 47.500 43.000 L 47.667 45.167 L 49.833 49.833 L 53.000 53.167 L 57.000 55.000 L 60.333 55.000 L 62.667 54.000 L 66.000 50.500 L 67.000 47.833 L 67.167 39.333 L 66.167 30.167 L 67.000 29.000 L 67.167 27.500 Z "/>
    <path d="M 75.500 14.833 L 73.333 14.667 L 66.833 12.667 L 62.833 9.667 L 60.167 9.667 L 39.167 12.833 L 37.333 13.667 L 30.167 14.833 L 24.833 16.667 L 19.500 17.667 L 17.833 19.000 L 18.667 26.333 L 18.667 33.500 L 19.667 46.000 L 19.500 58.833 L 18.833 62.500 L 18.667 69.667 L 17.667 74.000 L 18.000 79.000 L 21.500 80.167 L 27.167 83.333 L 31.500 86.333 L 36.000 90.333 L 37.833 90.333 L 48.667 84.333 L 55.333 81.167 L 56.333 81.167 L 57.333 80.333 L 61.167 79.167 L 62.167 78.333 L 63.667 78.167 L 71.167 75.167 L 72.500 75.167 L 74.333 74.167 L 83.667 71.833 L 84.167 70.167 L 83.167 67.500 L 83.167 65.167 L 82.167 62.000 L 82.167 59.500 L 81.167 56.333 L 81.000 52.500 L 80.333 50.833 L 80.000 45.667 L 79.167 42.667 L 79.167 39.000 L 78.333 35.333 L 78.167 29.500 L 77.167 23.000 L 77.167 16.667 Z M 23.500 78.167 L 25.500 77.167 L 27.500 77.167 L 30.167 76.167 L 31.667 78.667 L 33.667 84.333 L 33.167 84.500 L 28.500 80.833 Z M 22.000 21.333 L 22.833 22.000 L 27.167 22.500 L 27.833 24.000 L 29.667 48.500 L 29.833 73.000 L 29.333 73.667 L 27.833 73.667 L 20.833 75.667 L 20.500 74.833 L 21.000 74.167 L 21.167 69.000 L 22.167 62.500 L 22.167 36.333 L 21.167 21.333 Z M 73.833 18.167 L 74.500 20.167 L 74.667 27.833 L 75.667 33.333 L 75.833 39.167 L 76.667 42.167 L 76.667 45.833 L 80.833 69.333 L 61.167 75.667 L 47.667 81.667 L 38.333 86.667 L 38.167 50.667 L 36.333 26.833 L 44.167 24.167 L 45.500 24.167 L 47.333 23.167 L 49.000 23.167 L 55.333 21.167 L 57.333 21.167 L 59.167 20.333 L 63.167 20.000 L 65.333 19.167 Z M 61.833 13.667 L 62.000 17.000 L 61.333 17.500 L 53.667 18.667 L 35.333 24.000 L 34.167 23.667 L 29.167 19.833 L 25.667 19.500 L 26.000 19.000 L 31.000 18.167 L 33.167 17.167 L 35.167 17.167 L 37.833 16.167 L 39.833 16.167 L 42.333 15.167 L 45.833 15.000 L 48.167 14.167 L 61.000 12.667 Z "/>
  </g>
</svg>
